<?xml version="1.0" standalone="no"?>
<!DOCTYPE svg PUBLIC "-//W3C//DTD SVG 20010904//EN"
 "http://www.w3.org/TR/2001/REC-SVG-20010904/DTD/svg10.dtd">
<svg version="1.0" xmlns="http://www.w3.org/2000/svg"
 width="4500.000000pt" height="4500.000000pt" viewBox="0 0 4500.000000 4500.000000"
 preserveAspectRatio="xMidYMid meet">

<g transform="translate(0.000000,4500.000000) scale(0.100000,-0.100000)"
fill="#000000" stroke="none">
<path d="M22773 39955 c-506 -115 -753 -955 -903 -3075 -55 -783 -91 -1539
-155 -3230 -53 -1403 -76 -1926 -115 -2560 -75 -1209 -177 -2015 -315 -2467
-27 -88 -51 -123 -86 -123 -56 0 -86 51 -158 274 -107 328 -180 716 -331 1741
-154 1049 -234 1470 -347 1820 -103 321 -206 513 -353 656 -273 267 -706 228
-959 -87 -151 -188 -254 -431 -371 -875 -175 -665 -220 -809 -305 -984 -97
-197 -197 -290 -315 -290 -47 1 -70 8 -155 53 -55 29 -163 97 -240 152 -77 54
-200 141 -273 192 -342 240 -547 333 -768 345 -318 18 -480 -134 -551 -517
-17 -90 -18 -530 -23 -8443 l-5 -8348 -30 32 c-115 122 -375 303 -580 404
-390 191 -795 279 -1345 292 -616 14 -1171 -81 -1710 -294 -553 -218 -1032
-534 -1494 -983 -776 -754 -1166 -1599 -1193 -2585 -16 -605 111 -1082 397
-1487 74 -105 241 -283 347 -370 292 -239 669 -405 1128 -497 317 -64 444 -76
835 -76 380 0 478 8 770 61 395 72 870 228 1203 396 403 201 761 461 1087 788
331 331 569 658 775 1065 217 427 341 836 412 1355 16 117 18 717 23 9283 l5
9159 33 29 c25 23 42 29 76 29 51 0 119 -42 436 -269 291 -209 421 -284 593
-344 88 -30 99 -31 247 -32 132 0 167 3 233 23 242 70 439 242 590 517 120
218 206 470 346 1015 128 496 209 726 277 779 36 28 85 27 121 -3 75 -63 188
-408 277 -842 45 -222 111 -622 181 -1099 185 -1266 265 -1672 409 -2069 141
-389 337 -619 581 -681 73 -19 213 -19 280 -1 264 70 450 360 580 901 187 780
284 1966 390 4805 97 2595 144 3429 246 4350 65 589 160 1181 197 1223 18 21
55 22 71 3 22 -26 86 -558 135 -1126 126 -1439 213 -3299 331 -7105 83 -2675
97 -3097 120 -3775 122 -3514 238 -5302 410 -6315 90 -530 204 -785 392 -876
106 -51 256 -48 366 7 332 169 507 924 642 2769 85 1162 149 2589 255 5685
108 3137 171 4438 271 5615 74 877 176 1690 216 1730 18 18 57 19 71 2 15 -17
43 -181 91 -519 117 -829 162 -1295 286 -3013 192 -2648 332 -3620 600 -4170
126 -259 268 -386 468 -421 146 -26 296 6 427 91 256 165 436 564 564 1245 77
409 125 816 231 1935 101 1070 171 1568 270 1929 51 185 76 233 145 269 46 24
63 28 104 23 130 -15 225 -148 436 -615 181 -402 274 -556 424 -707 109 -108
208 -172 332 -213 317 -106 615 -38 865 197 240 225 394 501 702 1252 175 428
256 601 289 619 34 19 77 6 95 -29 10 -20 13 -1676 13 -8293 l0 -8269 -77 72
c-392 362 -912 579 -1546 644 -615 63 -1263 -5 -1833 -192 -796 -262 -1553
-799 -2111 -1497 -511 -638 -776 -1351 -800 -2150 -23 -777 216 -1403 691
-1814 405 -348 906 -536 1641 -612 177 -19 617 -16 803 5 1017 112 1902 519
2591 1191 684 668 1084 1457 1223 2415 l23 155 3 9290 c2 7088 0 9311 -9 9380
-14 106 -49 220 -90 292 -41 72 -136 156 -206 184 -75 30 -234 32 -333 6 -353
-95 -640 -444 -915 -1112 -151 -368 -193 -463 -275 -630 -141 -287 -282 -477
-384 -520 -48 -20 -123 -18 -172 4 -122 55 -196 173 -410 644 -160 353 -268
529 -419 682 -186 187 -413 285 -669 285 -256 0 -429 -118 -570 -390 -202
-388 -300 -919 -436 -2355 -114 -1203 -162 -1598 -246 -2025 -43 -220 -87
-386 -111 -419 -49 -65 -121 -86 -199 -56 -78 30 -103 91 -168 416 -129 644
-209 1402 -346 3299 -67 927 -104 1400 -140 1785 -141 1507 -298 2170 -578
2437 -135 129 -327 171 -495 108 -68 -26 -160 -106 -217 -189 -218 -323 -362
-1082 -474 -2506 -97 -1220 -173 -2863 -276 -5885 -101 -3001 -158 -4214 -256
-5480 -47 -617 -108 -1249 -124 -1287 -12 -30 -54 -39 -84 -20 -28 19 -26 11
-61 387 -147 1621 -236 3532 -375 8060 -50 1628 -75 2404 -100 3145 -149 4338
-305 6279 -554 6891 -64 157 -165 273 -274 314 -72 28 -179 34 -259 15z"/>
</g>
</svg>
