<?xml version="1.0" standalone="no"?>
<!DOCTYPE svg PUBLIC "-//W3C//DTD SVG 20010904//EN"
 "http://www.w3.org/TR/2001/REC-SVG-20010904/DTD/svg10.dtd">
<svg version="1.0" xmlns="http://www.w3.org/2000/svg"
 width="4500.000000pt" height="2220.000000pt" viewBox="0 0 4500.000000 2220.000000"
 preserveAspectRatio="xMidYMid meet">

<g transform="translate(0.000000,2220.000000) scale(0.100000,-0.100000)"
fill="#000000" stroke="none">
<path d="M36881 17519 c-157 -63 -247 -331 -305 -909 -32 -311 -55 -724 -86
-1540 -48 -1268 -85 -1729 -161 -2012 -36 -132 -62 -128 -108 16 -16 50 -41
150 -54 221 -25 129 -33 178 -103 635 -87 577 -168 797 -317 869 -99 48 -236
16 -313 -72 -69 -80 -105 -172 -180 -452 -62 -230 -96 -316 -148 -371 -25 -26
-52 -44 -65 -44 -34 0 -94 34 -233 131 -224 158 -350 199 -452 149 -52 -25
-76 -54 -102 -125 -18 -48 -19 -160 -24 -3397 l-5 -3347 -66 53 c-189 151
-438 226 -750 226 -373 -1 -711 -107 -1009 -318 -142 -100 -369 -331 -458
-464 -168 -253 -244 -502 -244 -798 1 -522 288 -834 844 -916 153 -22 430 -15
573 16 692 147 1181 624 1337 1305 l23 100 2 3684 c2 2682 6 3688 14 3698 23
26 57 11 208 -92 181 -123 238 -148 336 -148 98 0 169 29 238 98 92 92 153
233 226 521 35 140 75 258 97 291 11 18 23 23 42 21 24 -3 31 -13 59 -83 51
-131 76 -262 178 -935 71 -469 143 -692 255 -793 71 -64 168 -85 243 -53 55
22 122 108 157 197 111 288 154 752 210 2234 38 1002 66 1418 120 1796 28 188
43 262 58 267 19 6 28 -32 46 -193 67 -613 103 -1353 166 -3375 67 -2151 103
-2914 166 -3470 56 -497 120 -641 280 -628 71 6 114 40 153 121 133 273 185
903 266 3257 56 1623 95 2280 166 2780 20 144 29 174 49 154 33 -33 93 -573
150 -1344 74 -1002 116 -1348 197 -1605 75 -238 197 -335 351 -281 60 22 99
54 142 119 47 70 73 137 110 282 40 156 64 335 115 841 56 553 79 717 121 849
22 66 40 85 82 85 52 0 82 -41 189 -259 87 -178 101 -201 162 -262 59 -60 76
-70 140 -89 232 -71 400 66 566 460 162 382 160 378 189 367 15 -6 16 -310 16
-3308 l0 -3302 -42 40 c-180 165 -455 253 -788 253 -360 -1 -710 -112 -999
-318 -116 -82 -312 -269 -397 -379 -178 -227 -277 -475 -304 -762 -39 -400
105 -724 399 -897 249 -146 656 -196 1011 -124 697 142 1204 642 1342 1322
l23 113 0 3750 c0 3564 -1 3753 -18 3801 -55 157 -231 175 -377 38 -95 -89
-159 -198 -255 -434 -104 -257 -195 -390 -265 -390 -54 0 -105 62 -174 215
-71 156 -97 203 -149 273 -107 141 -291 201 -418 134 -150 -78 -220 -321 -284
-982 -57 -594 -95 -881 -135 -1023 -20 -69 -95 -86 -124 -28 -15 30 -48 189
-70 341 -36 250 -56 473 -111 1210 -48 653 -69 866 -110 1110 -54 327 -132
486 -252 519 -52 15 -72 14 -119 -8 -57 -26 -99 -82 -134 -179 -119 -330 -174
-1046 -250 -3267 -45 -1310 -82 -2027 -130 -2500 -17 -162 -20 -175 -40 -175
-21 0 -24 15 -45 260 -53 629 -87 1405 -145 3275 -63 2041 -99 2774 -161 3326
-45 411 -95 576 -188 624 -33 17 -113 19 -150 4z"/>
<path d="M15755 15300 c-436 -62 -714 -372 -883 -985 -17 -60 -33 -122 -36
-137 -6 -25 -11 -28 -50 -28 l-44 0 4 38 c7 58 84 996 84 1020 0 22 -2 22
-190 22 l-190 0 0 -1650 0 -1650 180 0 180 0 0 788 0 788 25 143 c113 641 349
1067 680 1226 103 49 155 63 263 72 329 25 562 -180 661 -577 64 -262 71 -403
71 -1497 l0 -943 180 0 180 0 0 803 c0 759 1 809 20 927 116 710 450 1201 870
1276 368 66 630 -134 740 -564 54 -214 53 -184 57 -1354 l4 -1088 185 0 185 0
-4 1083 c-4 1149 -4 1146 -53 1385 -95 461 -328 766 -664 870 -263 81 -586 34
-811 -119 -135 -90 -265 -250 -344 -422 -62 -136 -133 -366 -159 -519 -7 -37
-8 -38 -50 -38 l-43 0 -6 118 c-27 525 -301 912 -707 997 -91 19 -255 27 -335
15z"/>
<path d="M21116 15299 c-173 -17 -373 -77 -516 -156 -234 -130 -430 -343 -563
-614 -93 -190 -170 -471 -196 -711 -14 -123 -14 -455 -1 -573 25 -228 96 -488
175 -645 197 -391 537 -640 985 -722 155 -28 498 -31 637 -5 447 84 750 302
935 672 61 122 114 263 102 274 -11 9 -303 86 -307 80 -2 -2 -16 -38 -31 -80
-49 -137 -111 -234 -221 -345 -93 -94 -109 -106 -215 -157 -136 -66 -239 -93
-410 -108 -134 -12 -271 -6 -415 16 -542 85 -841 485 -880 1176 l-8 126 249 6
c137 4 427 7 644 7 217 0 656 3 974 7 l579 6 -6 191 c-17 542 -159 947 -427
1216 -260 263 -641 381 -1084 339z m434 -374 c36 -9 115 -41 176 -70 94 -45
126 -68 198 -136 200 -189 305 -429 340 -775 l7 -61 -752 -6 c-414 -4 -877 -7
-1029 -7 l-277 0 9 58 c22 143 79 325 143 453 151 302 411 503 723 559 80 15
388 5 462 -15z"/>
<path d="M24949 15299 c-404 -43 -688 -272 -867 -699 -40 -96 -109 -302 -133
-397 l-13 -53 -44 0 -44 0 6 58 c4 31 24 262 46 512 22 250 41 467 43 483 l4
27 -199 0 -198 0 0 -1650 0 -1650 185 0 184 0 3 818 c4 802 4 819 27 941 126
679 451 1128 898 1238 97 24 316 23 402 -1 113 -31 199 -81 281 -165 138 -140
205 -294 256 -591 15 -83 17 -229 21 -1167 l4 -1073 185 0 184 0 0 1018 c0
1036 -4 1153 -40 1357 -126 710 -548 1063 -1191 994z"/>
<path d="M27193 14113 c3 -983 6 -1130 20 -1213 52 -296 128 -505 241 -664 59
-83 188 -203 266 -249 166 -96 316 -132 550 -131 145 1 177 4 263 27 251 67
441 205 590 429 116 174 184 354 252 666 5 19 12 22 48 22 l43 0 -37 -482
c-21 -266 -40 -507 -43 -535 l-5 -53 185 0 184 0 0 1650 0 1650 -180 0 -180 0
0 -794 0 -795 -25 -138 c-103 -560 -315 -961 -615 -1162 -151 -101 -296 -139
-488 -128 -122 7 -202 26 -286 67 -207 103 -324 297 -387 640 -23 125 -23 128
-27 1218 l-3 1092 -185 0 -185 0 4 -1117z"/>
<path d="M18870 11629 c-35 -6 -98 -21 -140 -35 -252 -85 -380 -265 -380 -536
0 -121 13 -183 55 -274 104 -218 366 -328 739 -311 204 10 346 53 461 140 128
96 192 226 202 407 16 302 -140 511 -442 591 -63 17 -116 22 -255 25 -96 1
-204 -2 -240 -7z"/>
<path d="M28510 8825 l0 -2675 620 0 620 0 0 2675 0 2675 -620 0 -620 0 0
-2675z"/>
<path d="M4010 8670 l0 -2520 575 0 575 0 0 1895 c0 1042 3 1895 8 1895 4 0
259 -853 567 -1895 l560 -1895 545 0 545 0 559 1868 c307 1027 565 1881 572
1897 10 25 13 -315 13 -1867 l1 -1898 575 0 575 0 0 2520 0 2520 -879 0 c-828
0 -879 -1 -883 -17 -35 -131 -1002 -3559 -1004 -3562 -2 -2 -6 -2 -9 1 -3 2
-236 808 -519 1789 l-513 1784 -932 3 -931 2 0 -2520z"/>
<path d="M15985 10284 c-433 -42 -738 -137 -1000 -312 -279 -185 -452 -434
-516 -742 -28 -136 -30 -374 -5 -495 41 -190 103 -311 230 -443 224 -233 545
-369 1391 -588 402 -105 516 -139 620 -188 145 -68 189 -127 188 -253 -1 -158
-87 -249 -285 -303 -243 -66 -546 -44 -745 55 -183 90 -297 252 -338 480 -9
50 -19 106 -23 125 l-7 35 -535 -45 -535 -45 1 -170 c0 -117 6 -198 18 -260
114 -592 555 -946 1321 -1059 380 -56 857 -44 1195 31 643 142 1035 509 1099
1028 62 504 -143 889 -609 1142 -233 127 -483 207 -1095 348 -369 86 -564 155
-654 232 -163 139 -119 365 92 467 96 47 198 66 349 66 237 0 404 -57 529
-180 113 -111 168 -251 169 -427 0 -79 1 -83 23 -83 12 1 246 22 520 49 347
33 501 51 506 60 14 23 21 215 11 324 -27 309 -127 519 -345 726 -224 211
-536 342 -967 407 -98 14 -512 27 -603 18z"/>
<path d="M21900 10280 c-491 -51 -866 -215 -1160 -510 -313 -314 -512 -763
-581 -1315 -19 -151 -17 -543 4 -695 89 -642 358 -1115 797 -1403 175 -114
418 -213 645 -260 197 -42 312 -52 580 -52 148 0 293 5 355 13 450 57 791 209
1045 466 234 237 354 494 395 851 15 136 9 410 -10 429 -4 4 -1039 56 -1111
56 l-25 0 4 -116 c16 -401 -144 -686 -426 -759 -35 -9 -107 -18 -160 -22 -409
-23 -684 199 -797 646 -47 187 -59 307 -59 571 0 365 36 566 136 770 43 87 66
119 133 186 132 134 262 183 481 184 262 0 444 -101 542 -302 54 -112 73 -197
81 -363 l6 -140 529 41 c387 31 531 45 536 55 27 43 23 418 -5 549 -69 318
-221 573 -449 759 -236 191 -480 293 -826 346 -123 19 -531 28 -660 15z"/>
<path d="M25952 10274 c-692 -75 -1157 -340 -1401 -795 -83 -157 -134 -353
-151 -586 -12 -167 -12 -204 -1 -221 6 -10 137 -22 502 -47 272 -19 518 -36
547 -39 l52 -5 0 68 c0 108 27 237 65 320 26 54 54 92 108 145 87 86 163 128
294 163 85 23 118 26 248 26 122 0 165 -4 228 -21 220 -60 341 -191 354 -382
7 -98 -11 -154 -65 -201 -79 -69 -172 -95 -762 -213 -478 -96 -767 -165 -915
-221 -436 -164 -698 -414 -789 -754 -37 -136 -50 -273 -42 -436 14 -319 91
-511 280 -701 146 -146 292 -224 532 -285 153 -38 300 -53 469 -46 159 7 267
25 407 67 498 153 888 586 969 1078 18 112 18 112 39 112 20 0 20 -9 20 -575
l0 -575 535 0 536 0 -4 1283 c-3 1272 -3 1283 -25 1420 -53 325 -145 583 -283
791 -67 102 -226 266 -328 339 -289 208 -663 309 -1136 306 -88 -1 -216 -7
-283 -15z m845 -2396 c-12 -237 -63 -410 -171 -572 -148 -223 -405 -356 -686
-356 -216 0 -369 79 -442 228 -31 62 -33 73 -33 172 0 99 2 109 33 172 59 120
183 204 402 272 63 20 250 62 415 95 165 33 338 73 385 90 47 16 89 30 94 30
5 1 6 -54 3 -131z"/>
<path d="M10220 8966 c0 -1246 4 -1399 41 -1661 120 -851 533 -1266 1259
-1265 561 1 949 259 1150 765 89 224 148 497 185 853 6 57 9 62 31 62 l24 0 0
-785 0 -785 530 0 530 0 0 2015 0 2015 -619 0 -619 0 -5 -922 c-5 -1000 -8
-1071 -63 -1331 -79 -375 -238 -631 -456 -736 -104 -50 -183 -65 -299 -59 -78
5 -100 11 -163 42 -150 74 -223 195 -267 446 -8 46 -13 435 -16 1313 l-4 1247
-620 0 -619 0 0 -1214z"/>
<path d="M18460 8165 l0 -2015 620 0 620 0 0 2015 0 2015 -620 0 -620 0 0
-2015z"/>
</g>
</svg>
